ModelForces
version=1
nRows=7
nColumns=67
inDegrees=no

This file contains the forces exerted on a model during a simulation.

A force is a generalized force, meaning that it can be either a force (N) or a torque (Nm).

Units are S.I. units (second, meters, Newtons, ...)
Angles are in degrees.

endheader
time	hamstrings_r	bifemsh_r	glut_max_r	iliopsoas_r	rect_fem_r	vasti_r	gastroc_r	soleus_r	tib_ant_r	hamstrings_l	bifemsh_l	glut_max_l	iliopsoas_l	rect_fem_l	vasti_l	gastroc_l	soleus_l	tib_ant_l	foot_r.ground.force.X	foot_r.ground.force.Y	foot_r.ground.force.Z	foot_r.ground.torque.X	foot_r.ground.torque.Y	foot_r.ground.torque.Z	foot_r.calcn_r.force.X	foot_r.calcn_r.force.Y	foot_r.calcn_r.force.Z	foot_r.calcn_r.torque.X	foot_r.calcn_r.torque.Y	foot_r.calcn_r.torque.Z	foot_r.toes_r.force.X	foot_r.toes_r.force.Y	foot_r.toes_r.force.Z	foot_r.toes_r.torque.X	foot_r.toes_r.torque.Y	foot_r.toes_r.torque.Z	foot_l.ground.force.X	foot_l.ground.force.Y	foot_l.ground.force.Z	foot_l.ground.torque.X	foot_l.ground.torque.Y	foot_l.ground.torque.Z	foot_l.calcn_l.force.X	foot_l.calcn_l.force.Y	foot_l.calcn_l.force.Z	foot_l.calcn_l.torque.X	foot_l.calcn_l.torque.Y	foot_l.calcn_l.torque.Z	foot_l.toes_l.force.X	foot_l.toes_l.force.Y	foot_l.toes_l.force.Z	foot_l.toes_l.torque.X	foot_l.toes_l.torque.Y	foot_l.toes_l.torque.Z	HipLimit_r	PotentialEnergy	HipLimit_l	PotentialEnergy	KneeLimit_r	PotentialEnergy	KneeLimit_l	PotentialEnergy	AnkleLimit_r	PotentialEnergy	AnkleLimit_l	PotentialEnergy
      1.14566162	     33.15956427	     54.21917158	     31.43839230	    132.15899660	   1744.07461648	     77.24221249	    459.80239735	    644.13008260	   1010.12090236	   2591.88818992	    486.24949713	     30.59644902	    234.52028657	   1656.61136051	     73.48285171	   3710.69814145	    160.95734371	   1807.68609874	     30.47536102	   -168.12295053	      0.00000000	     15.36980014	      2.78605750	     25.18150763	    -30.47536102	    168.12295053	      0.00000000	      0.00000000	      0.00000000	      3.82108131	      0.00000000	      0.00000000	      0.00000000	      0.00000000	      0.00000000	      0.00000000	    -72.91036167	   -604.72343718	      0.00000000	    -55.93691794	      6.74420845	    -19.36715432	      0.00000000	      0.00000000	      0.00000000	      0.00000000	      0.00000000	      0.00000000	     72.91036167	    604.72343718	      0.00000000	      0.00000000	      0.00000000	     19.87518421	      0.00000000	      0.00000000	      0.00000000	      0.00000000	    -21.78878073	      0.32995140	    -67.66292986	      1.63599073	     -0.06228318	      0.00014825	      0.00000000	      0.00000000
      1.14666410	     33.16118770	     54.30121620	     31.43932121	    132.17507246	   1743.96121797	     77.22886516	    459.99561990	    644.48290159	   1010.38291361	   2591.72476796	    486.25005809	     30.59790714	    234.66113366	   1656.51419385	     73.48363509	   3711.67233045	    161.13288808	   1807.27120332	     30.42867315	   -168.09339138	      0.00000000	     15.36709784	      2.78178930	     25.17295711	    -30.42867315	    168.09339138	      0.00000000	      0.00000000	      0.00000000	      3.82106479	      0.00000000	      0.00000000	      0.00000000	      0.00000000	      0.00000000	      0.00000000	    -73.08186932	   -605.02069814	      0.00000000	    -55.96441458	      6.76007291	    -19.37074033	      0.00000000	      0.00000000	      0.00000000	      0.00000000	      0.00000000	      0.00000000	     73.08186932	    605.02069814	      0.00000000	      0.00000000	      0.00000000	     19.88504157	      0.00000000	      0.00000000	      0.00000000	      0.00000000	    -21.78448514	      0.32987277	    -67.68850149	      1.63693544	     -0.06467052	      0.00015533	      0.00000000	      0.00000000
      1.14788947	     33.16304993	     54.38073759	     31.44040772	    132.19458402	   1743.82824830	     77.21658149	    460.23491766	    644.91974705	   1010.63968773	   2591.52405929	    486.25053563	     30.59963001	    234.81409372	   1656.39957771	     73.48507368	   3712.86268049	    161.34731111	   1806.76855209	     30.35859998	   -168.04947878	      0.00000000	     15.36308335	      2.77538321	     25.16133848	    -30.35859998	    168.04947878	      0.00000000	      0.00000000	      0.00000000	      3.82077881	      0.00000000	      0.00000000	      0.00000000	      0.00000000	      0.00000000	      0.00000000	    -73.28871727	   -605.38223409	      0.00000000	    -55.99785665	      6.77920635	    -19.37503547	      0.00000000	      0.00000000	      0.00000000	      0.00000000	      0.00000000	      0.00000000	     73.28871727	    605.38223409	      0.00000000	      0.00000000	      0.00000000	     19.89707405	      0.00000000	      0.00000000	      0.00000000	      0.00000000	    -21.77939571	      0.32977396	    -67.71965039	      1.63808568	     -0.06768762	      0.00016449	      0.00000000	      0.00000000
      1.14911484	     33.16479466	     54.44236814	     31.44118171	    132.21413055	   1743.69971551	     77.20634552	    460.47517589	    645.35728119	   1010.84447593	   2591.32221572	    486.25080896	     30.60122989	    234.94872828	   1656.28942920	     73.48684229	   3714.05218096	    161.56152115	   1806.27117341	     30.27692462	   -167.99485632	      0.00000000	     15.35808976	      2.76791645	     25.14811524	    -30.27692462	    167.99485632	      0.00000000	      0.00000000	      0.00000000	      3.82017799	      0.00000000	      0.00000000	      0.00000000	      0.00000000	      0.00000000	      0.00000000	    -73.50083007	   -605.74200475	      0.00000000	    -56.03113544	      6.79882678	    -19.37927598	      0.00000000	      0.00000000	      0.00000000	      0.00000000	      0.00000000	      0.00000000	     73.50083007	    605.74200475	      0.00000000	      0.00000000	      0.00000000	     19.90900902	      0.00000000	      0.00000000	      0.00000000	      0.00000000	    -21.77478589	      0.32967478	    -67.75068442	      1.63923126	     -0.07078483	      0.00017417	      0.00000000	      0.00000000
      1.15000000	     33.16599518	     54.47813444	     31.44143852	    132.22837146	   1743.60826190	     77.19863482	    460.64765540	    645.67013446	   1010.97180748	   2591.17564050	    486.25089285	     30.60228802	    235.03608195	   1656.21259027	     73.48823892	   3714.91066485	    161.71609402	   1805.91538604	     30.21293105	   -167.94748216	      0.00000000	     15.35375882	      2.76206616	     25.13737808	    -30.21293105	    167.94748216	      0.00000000	      0.00000000	      0.00000000	      3.81954003	      0.00000000	      0.00000000	      0.00000000	      0.00000000	      0.00000000	      0.00000000	    -73.65118627	   -606.00020602	      0.00000000	    -56.05501906	      6.81273473	    -19.38226182	      0.00000000	      0.00000000	      0.00000000	      0.00000000	      0.00000000	      0.00000000	     73.65118627	    606.00020602	      0.00000000	      0.00000000	      0.00000000	     19.91761567	      0.00000000	      0.00000000	      0.00000000	      0.00000000	    -21.77191300	      0.32960492	    -67.77306045	      1.64005608	     -0.07305367	      0.00018146	      0.00000000	      0.00000000
      1.15108045	     33.16741049	     54.76998140	     31.44152520	    132.24589139	   1743.49719758	     77.18790974	    460.85604738	    646.04648921	   1011.62522753	   2590.99583654	    486.25087166	     30.60350734	    235.31378136	   1656.12439704	     73.49007261	   3715.95750821	    161.90457632	   1805.48516657	     30.16445432	   -167.88231306	      0.00000000	     15.34780106	      2.75763441	     25.12322513	    -30.16445432	    167.88231306	      0.00000000	      0.00000000	      0.00000000	      3.81880434	      0.00000000	      0.00000000	      0.00000000	      0.00000000	      0.00000000	      0.00000000	    -73.83590705	   -606.31340691	      0.00000000	    -56.08399014	      6.82982140	    -19.38583551	      0.00000000	      0.00000000	      0.00000000	      0.00000000	      0.00000000	      0.00000000	     73.83590705	    606.31340691	      0.00000000	      0.00000000	      0.00000000	     19.92805601	      0.00000000	      0.00000000	      0.00000000	      0.00000000	    -21.76848620	      0.32952313	    -67.80016908	      1.64105969	     -0.07590601	      0.00019068	      0.00000000	      0.00000000
      1.15216090	     33.16878617	     55.00300155	     31.44196018	    132.26328538	   1743.38820208	     77.17768979	    461.06434465	    646.42198214	   1012.22095370	   2590.81520982	    486.25068213	     30.60481206	    235.56078781	   1656.03971859	     73.49232600	   3717.00320249	    162.09289874	   1805.05918925	     30.14768553	   -167.81151287	      0.00000000	     15.34132851	      2.75610141	     25.10828548	    -30.14768553	    167.81151287	      0.00000000	      0.00000000	      0.00000000	      3.81815759	      0.00000000	      0.00000000	      0.00000000	      0.00000000	      0.00000000	      0.00000000	    -74.02226658	   -606.62445911	      0.00000000	    -56.11276247	      6.84705966	    -19.38933305	      0.00000000	      0.00000000	      0.00000000	      0.00000000	      0.00000000	      0.00000000	     74.02226658	    606.62445911	      0.00000000	      0.00000000	      0.00000000	     19.93842195	      0.00000000	      0.00000000	      0.00000000	      0.00000000	    -21.76449491	      0.32944266	    -67.82692556	      1.64205830	     -0.07891036	      0.00020032	      0.00000000	      0.00000000
